<svg width="106" height="32" viewBox="0 0 106 32" fill="none" xmlns="http://www.w3.org/2000/svg">
<mask id="mask0_1063:47607" style="mask-type:alpha" maskUnits="userSpaceOnUse" x="0" y="0" width="106" height="32">
<rect width="106" height="32" fill="#919EAB"/>
</mask>
<g mask="url(#mask0_1063:47607)">
<path d="M13.1044 9.8716L7.0389 13.7432L13.1044 17.6148L7.0389 21.4864L0.973389 17.5826L7.0389 13.7109L0.973389 9.8716L7.0389 6L13.1044 9.8716ZM7.00664 22.7124L13.0722 18.8408L19.1377 22.7124L13.0722 26.584L7.00664 22.7124ZM13.1044 17.5826L19.1699 13.7109L13.1044 9.8716L19.1377 6L25.2032 9.8716L19.1377 13.7432L25.2032 17.6148L19.1377 21.4864L13.1044 17.5826Z" fill="#212B36"/>
<path d="M29.9458 9.87221H34.8498C37.9794 9.87221 40.5605 11.679 40.5605 15.8087V16.6798C40.5605 20.8418 38.1407 22.713 34.9466 22.713H29.9458V9.87221ZM32.6882 12.1952V20.3578H34.7853C36.5598 20.3578 37.7535 19.1963 37.7535 16.6153V15.9377C37.7535 13.3567 36.4953 12.1952 34.6885 12.1952H32.6882ZM42.0123 12.3242H44.2062L44.5611 14.744C44.9806 13.0985 46.0452 12.2274 47.981 12.2274H48.6586V15.0021H47.5294C45.3032 15.0021 44.7547 15.7764 44.7547 17.9703V22.7453H42.0446V12.3242H42.0123ZM49.2071 17.7445V17.4541C49.2071 13.9697 51.4332 12.0661 54.466 12.0661C57.5633 12.0661 59.7249 13.9697 59.7249 17.4541V17.7445C59.7249 21.1644 57.6278 23.0034 54.466 23.0034C51.1106 22.9711 49.2071 21.1644 49.2071 17.7445ZM56.9503 17.7122V17.4541C56.9503 15.5183 55.9824 14.3568 54.4337 14.3568C52.9174 14.3568 51.9172 15.4215 51.9172 17.4541V17.7122C51.9172 19.5835 52.8851 20.6482 54.4337 20.6482C55.9824 20.6159 56.9503 19.5835 56.9503 17.7122ZM61.1445 12.3242H63.403L63.6611 14.2923C64.2095 12.9695 65.371 12.0661 67.081 12.0661C69.7266 12.0661 71.4688 13.9697 71.4688 17.4864V17.7767C71.4688 21.1967 69.533 23.0034 67.081 23.0034C65.4356 23.0034 64.3063 22.2613 63.7579 21.0676V26.3265H61.1123L61.1445 12.3242ZM68.7264 17.7122V17.4864C68.7264 15.4215 67.6617 14.3891 66.2421 14.3891C64.7258 14.3891 63.7256 15.5506 63.7256 17.4864V17.6799C63.7256 19.519 64.6935 20.6804 66.2099 20.6804C67.7585 20.6482 68.7264 19.648 68.7264 17.7122ZM75.4695 20.8095L75.2436 22.713H72.9207V8.83978H75.5663V14.1632C76.147 12.8082 77.3085 12.0661 78.9539 12.0661C81.4382 12.0984 83.2772 13.8083 83.2772 17.2605V17.5832C83.2772 21.0353 81.535 23.0034 78.8894 23.0034C77.1472 22.9711 76.018 22.1646 75.4695 20.8095ZM80.5026 17.5832V17.325C80.5026 15.4215 79.4701 14.3568 78.0183 14.3568C76.5342 14.3568 75.5017 15.5506 75.5017 17.3573V17.5832C75.5017 19.519 76.5019 20.6482 77.986 20.6482C79.5669 20.6482 80.5026 19.648 80.5026 17.5832ZM84.4387 17.7445V17.4541C84.4387 13.9697 86.6649 12.0661 89.6977 12.0661C92.7949 12.0661 94.9566 13.9697 94.9566 17.4541V17.7445C94.9566 21.1644 92.8272 23.0034 89.6977 23.0034C86.3423 22.9711 84.4387 21.1644 84.4387 17.7445ZM92.2142 17.7122V17.4541C92.2142 15.5183 91.2463 14.3568 89.6977 14.3568C88.1813 14.3568 87.1811 15.4215 87.1811 17.4541V17.7122C87.1811 19.5835 88.149 20.6482 89.6977 20.6482C91.2463 20.6159 92.2142 19.5835 92.2142 17.7122ZM98.5056 17.325L94.8598 12.3242H97.9894L100.086 15.4538L102.216 12.3242H105.313L101.603 17.2928L105.507 22.713H102.442L100.054 19.2609L97.7312 22.713H94.5372L98.5056 17.325Z" fill="#212B36"/>
</g>
</svg>
