<svg width="106" height="32" viewBox="0 0 106 32" fill="none" xmlns="http://www.w3.org/2000/svg">
<mask id="mask0_1063:47610" style="mask-type:alpha" maskUnits="userSpaceOnUse" x="0" y="0" width="106" height="32">
<rect width="106" height="32" fill="#919EAB"/>
</mask>
<g mask="url(#mask0_1063:47610)">
<path d="M23.2992 3H23.9967C26.418 3.05264 28.7999 4.02645 30.5107 5.75036C29.879 6.39518 29.2342 7.01368 28.6157 7.6585C27.655 6.78997 26.497 6.11883 25.2337 5.88195C23.365 5.48716 21.3516 5.84247 19.7856 6.9084C18.0748 8.02697 16.9168 9.92195 16.6667 11.9485C16.3904 13.9488 16.9563 16.0543 18.2591 17.6072C19.5092 19.1205 21.4174 20.068 23.3913 20.1338C25.2337 20.2391 27.155 19.6732 28.4973 18.3836C29.55 17.4756 30.0369 16.0938 30.1948 14.7515C28.0103 14.7515 25.8258 14.7647 23.6413 14.7515V12.0406H32.8399C33.3137 14.9489 32.6294 18.2257 30.4186 20.3049C28.9447 21.7788 26.9049 22.6473 24.8257 22.8184C22.8123 23.0158 20.7331 22.6341 18.9434 21.6603C16.7983 20.5154 15.0876 18.581 14.2454 16.3044C13.4558 14.212 13.4426 11.8433 14.1796 9.73772C14.8507 7.81642 16.1404 6.11883 17.7985 4.93446C19.3908 3.76326 21.3253 3.11844 23.2992 3Z" fill="#212B36"/>
<path d="M76.0691 3.68424H78.8852V22.4762C77.9509 22.4762 77.0034 22.4893 76.0691 22.463C76.0822 16.2122 76.0691 9.94823 76.0691 3.68424Z" fill="#212B36"/>
<path d="M39.1038 10.1983C40.8409 9.86932 42.7227 10.2378 44.1571 11.2774C45.4599 12.1986 46.3679 13.6461 46.6443 15.2253C46.9996 17.0545 46.5522 19.0547 45.3678 20.5023C44.0913 22.1209 41.9989 22.9894 39.9592 22.8578C38.0905 22.7526 36.2745 21.8182 35.1691 20.2917C33.9189 18.6073 33.6162 16.2912 34.3005 14.3173C34.9848 12.1986 36.9193 10.5799 39.1038 10.1983ZM39.4986 12.6986C38.788 12.8829 38.13 13.2908 37.6562 13.8698C36.3798 15.3964 36.4587 17.8835 37.8668 19.3048C38.6695 20.1206 39.8802 20.5023 40.9988 20.2786C42.0384 20.0943 42.9464 19.3969 43.4465 18.4757C44.315 16.9097 44.065 14.7515 42.7359 13.5277C41.8805 12.7381 40.6303 12.4091 39.4986 12.6986Z" fill="#212B36"/>
<path d="M53.053 10.1983C55.0401 9.81667 57.2115 10.3694 58.6985 11.7643C61.1199 13.9356 61.3831 18.002 59.317 20.5023C58.0668 22.0814 56.0403 22.95 54.04 22.8579C52.1319 22.8052 50.25 21.8577 49.1183 20.2917C47.8418 18.5678 47.5655 16.1991 48.2893 14.1857C49.013 12.1328 50.908 10.5668 53.053 10.1983ZM53.4478 12.6986C52.7372 12.8829 52.0792 13.2908 51.6055 13.8567C50.3422 15.3569 50.3948 17.8046 51.7502 19.239C52.553 20.0943 53.8031 20.5155 54.9612 20.2786C55.9876 20.0812 56.9088 19.3969 57.4089 18.4757C58.2642 16.8966 58.0142 14.7384 56.6719 13.5145C55.8165 12.725 54.5664 12.4091 53.4478 12.6986Z" fill="#212B36"/>
<path d="M64.8835 10.9615C66.3968 10.014 68.4103 9.75083 70.042 10.5667C70.5553 10.7904 70.9764 11.1721 71.3843 11.5537C71.3975 11.1984 71.3843 10.8299 71.3975 10.4614C72.2792 10.4746 73.1609 10.4614 74.0557 10.4746V22.0814C74.0426 23.8316 73.5951 25.6871 72.3318 26.9636C70.9501 28.3717 68.8314 28.806 66.9232 28.5165C64.8835 28.2138 63.1069 26.7267 62.3173 24.8449C63.1069 24.4633 63.936 24.1606 64.7519 23.8053C65.2125 24.8844 66.1468 25.8056 67.318 26.0161C68.4892 26.2267 69.8447 25.9372 70.6079 24.9634C71.4238 23.9632 71.4238 22.5946 71.3843 21.3708C70.779 21.963 70.0815 22.4893 69.2393 22.6867C67.4101 23.2 65.3967 22.5683 63.9886 21.3313C62.5674 20.0943 61.7252 18.1862 61.8041 16.2912C61.8436 14.1461 63.0543 12.0801 64.8835 10.9615ZM67.6075 12.6459C66.8048 12.7775 66.0547 13.225 65.5415 13.8435C64.3045 15.3174 64.3045 17.6729 65.5546 19.1205C66.2652 19.9759 67.4101 20.4496 68.5155 20.3312C69.5551 20.2259 70.5158 19.5679 71.029 18.6599C71.8976 17.1202 71.7528 15.0278 70.5816 13.6856C69.8578 12.8565 68.6998 12.4486 67.6075 12.6459Z" fill="#212B36"/>
<path d="M82.2675 11.6327C83.8467 10.1589 86.2812 9.65879 88.3078 10.4352C90.2291 11.159 91.453 12.9882 92.0715 14.87C89.2158 16.0544 86.3733 17.2256 83.5177 18.41C83.9125 19.1601 84.5178 19.8444 85.3337 20.1207C86.4786 20.5287 87.8472 20.3839 88.8079 19.6207C89.1895 19.3311 89.4922 18.9495 89.7817 18.581C90.5055 19.0679 91.2293 19.5417 91.953 20.0286C90.9266 21.5683 89.2027 22.6474 87.3471 22.8184C85.2942 23.0685 83.1097 22.2789 81.7806 20.6734C79.5961 18.1468 79.8066 13.9094 82.2675 11.6327ZM83.6756 14.0673C83.2281 14.7121 83.0439 15.5017 83.0571 16.2781C84.9652 15.4885 86.8734 14.6989 88.7815 13.8962C88.4657 13.1593 87.7025 12.7118 86.926 12.5934C85.6759 12.3697 84.373 13.0408 83.6756 14.0673Z" fill="#212B36"/>
</g>
</svg>
