<svg fill="none" height="467" viewBox="0 0 466 467" width="466" xmlns="http://www.w3.org/2000/svg"><path d="m385.304 82.9697-202.38 4.5847c-5.375.1237-10.497 2.3069-14.309 6.0987-3.811 3.7919-6.021 8.9029-6.172 14.2769l-8.291 293.75c-.058 2.073.3 4.136 1.055 6.067s1.89 3.69 3.339 5.174c1.448 1.483 3.18 2.66 5.092 3.461 1.913.8 3.966 1.208 6.04 1.199l232.047-1.04c1.95-.009 3.879-.406 5.674-1.168 1.795-.763 3.42-1.875 4.78-3.273 1.36-1.397 2.429-3.052 3.142-4.867.714-1.815 1.059-3.754 1.015-5.703l-6.692-295.295c-.069-3.126-.754-6.208-2.015-9.0694-1.262-2.8613-3.074-5.4461-5.335-7.6066-2.26-2.1605-4.924-3.8545-7.839-4.9851-2.916-1.1306-6.025-1.6757-9.151-1.6042z" fill="#b3200e"/><path d="m384.703 83.9313c-27.552 4.3735-122.326 18.1187-201.035 13.8658-.852-.0476-1.705.0756-2.508.3625-.803.287-1.541.7317-2.17 1.3081-.628.5763-1.135 1.2723-1.491 2.0483-.355.775-.552 1.614-.579 2.466l-8.986 295.075c-.06 1.943.652 3.831 1.98 5.251 1.327 1.42 3.163 2.256 5.106 2.327 33.091 1.208 169.358 5.684 217.787-.5 1.423-.184 2.729-.885 3.667-1.971s1.443-2.48 1.418-3.915l-5.194-309.6014c-.016-.9899-.244-1.9649-.669-2.8589-.426-.894-1.038-1.6862-1.796-2.323-.759-.6368-1.645-1.1033-2.599-1.368-.954-.2648-1.953-.3215-2.931-.1664z" fill="#770508"/><path d="m381.915 91.6419c-26.514 4.209-117.719 17.4371-193.466 13.3521-.819-.046-1.64.073-2.413.349-.772.277-1.482.705-2.087 1.259-.605.555-1.093 1.225-1.435 1.971-.343.746-.532 1.553-.558 2.373l-8.647 283.962c-.059 1.87.626 3.688 1.904 5.055 1.277 1.367 3.044 2.173 4.914 2.242 31.846 1.161 162.982 5.469 209.594-.482 1.37-.176 2.627-.852 3.529-1.897.903-1.046 1.388-2.387 1.364-3.768l-5.004-297.9528c-.016-.9527-.235-1.8909-.645-2.7513-.409-.8603-.999-1.6227-1.728-2.2355-.73-.6129-1.582-1.0618-2.501-1.3165-.918-.2548-1.88-.3093-2.821-.16z" fill="#fdab76"/><path d="m365.485 120.53-1.447 60.87c-.022.975-.412 1.907-1.092 2.606-.68.7-1.6 1.117-2.575 1.166-11.254.573-46.325 2.225-66.162 1.64-1.083-.03-2.115-.466-2.892-1.222-.776-.756-1.24-1.776-1.3-2.858.604-4.42-5.744-64.679 4.604-62.568l66.511-3.835c.568-.034 1.136.051 1.669.248.534.197 1.021.503 1.43.897.409.395.732.871.948 1.397s.32 1.091.306 1.659z" fill="#fee9d1" opacity=".78"/><path d="m314.606 143.436c.681 17.175 26.238 16.593 26.142-.593-.683-17.175-26.242-16.593-26.142.593z" fill="#fa541c"/><path d="m348.401 181.067-41.643.944c-.579.013-1.151-.13-1.655-.415-.505-.285-.924-.7-1.212-1.202-.289-.503-.437-1.073-.429-1.653.008-.579.173-1.145.475-1.639 18.619-31.358 59.165.037 44.464 3.965z" fill="#fa541c"/><g fill="#fee9d1"><path d="m225.032 156.503c-5.64-.311-16.186-.266-21.991-.215-1.194.009-2.349.424-3.276 1.176s-1.57 1.797-1.825 2.963c-1.015 4.669-2.377 12.767-1.99 21.304.054 1.228.589 2.385 1.49 3.221s2.095 1.283 3.323 1.245l21.411-.716c1.271-.043 2.482-.555 3.397-1.437.916-.883 1.473-2.073 1.562-3.342l1.427-20.183c.036-.496-.027-.995-.185-1.466-.158-.472-.409-.907-.737-1.281-.329-.374-.728-.679-1.175-.897-.448-.218-.934-.344-1.431-.372z"/><path d="m198.839 129.604c-2.818.021-2.722-4.018.024-4.12l73.436-2.973c1.172-.048 1.834.826 1.469 1.94l-.475 1.454c-.365 1.116-1.623 2.049-2.795 2.075z"/><path d="m272.559 133.845c2.192 0 1.53 2.04.993 3.395-.365 1.115-1.622 2.05-2.794 2.076l-71.663 1.622c-.271.014-.542-.027-.797-.121s-.488-.238-.686-.424-.356-.41-.466-.658c-.109-.249-.167-.517-.17-.788 0-1.123.973-2.081 2.146-2.129z"/><path d="m272.82 145.344c2.192 0 1.53 2.04.993 3.396-.365 1.115-1.622 2.049-2.794 2.076l-71.663 1.624c-.271.013-.542-.028-.797-.122s-.489-.238-.687-.424-.356-.41-.465-.659-.167-.517-.17-.789c.008-1.122.973-2.08 2.146-2.127z"/><path d="m238.363 166.451c-2.824.021-2.778-4.001-.036-4.158l34.13-2.004c1.996-.052 1.979 1.776 1.619 3.251-.107.582-.407 1.112-.852 1.503-.445.392-1.008.622-1.6.655z"/><path d="m272.846 173.636c1.996.023 1.912 1.849 1.498 3.31-.129.578-.448 1.096-.906 1.471-.459.375-1.03.584-1.622.595l-33.266-.465c-1.174-.016-2.107-.947-2.076-2.07.031-1.122 1.019-2.06 2.191-2.087z"/><g opacity=".24"><path d="m366.362 228.975c-4.119-.222-11.821-.194-16.061-.156-.872.006-1.716.309-2.393.858-.678.55-1.148 1.313-1.333 2.165-.742 3.416-1.737 9.316-1.453 15.558.04.897.432 1.741 1.09 2.351s1.529.937 2.426.91l15.637-.524c.929-.031 1.812-.405 2.481-1.049.669-.645 1.076-1.514 1.141-2.441l1.041-14.749c.025-.361-.022-.725-.138-1.068s-.299-.66-.539-.932c-.239-.272-.531-.494-.857-.653-.326-.158-.68-.25-1.042-.27z"/><path d="m281.158 230.905c-4.119-.222-11.821-.194-16.061-.156-.872.007-1.716.31-2.393.859s-1.147 1.312-1.333 2.164c-.741 3.416-1.736 9.316-1.452 15.558.041.897.432 1.741 1.09 2.351s1.53.937 2.427.91l15.635-.522c.929-.031 1.813-.405 2.482-1.049.669-.645 1.075-1.514 1.141-2.441l1.041-14.749c.026-.362-.021-.725-.137-1.069s-.3-.661-.539-.933c-.24-.272-.532-.494-.858-.652-.326-.159-.681-.251-1.043-.271z"/></g><path d="m193.523 208.062c-2.816 0-2.557-4.053.177-4.103.848 1.571 174.917-8.433 172.284-3.607-1.197 1.694-2.75 3.914-5.068 3.918z"/><path d="m365.4 210.064c2.807.014-.227 2.893-.805 3.8-.709.931-2.249 1.72-3.423 1.746l-167.393 3.793c-1.172.026-2.091-.871-2.043-1.995s1.048-2.071 2.22-2.108z"/><path d="m337.815 235.654c2.776-.141 1.599 3.394 1.477 4.984-.091.581-.379 1.114-.816 1.508s-.997.626-1.584.656l-38.463.871c-1.804.019-2.329-1.677-2.164-3.204.001-.574.219-1.126.609-1.547.39-.42.924-.679 1.496-.723z"/><path d="m252.61 237.588c2.777-.142 1.6 3.392 1.478 4.982-.091.582-.379 1.114-.817 1.509-.437.394-.997.625-1.585.655l-38.461.871c-1.804.019-2.329-1.675-2.166-3.203.002-.574.219-1.126.61-1.547.39-.421.924-.68 1.497-.724z"/><path d="m204.403 283.595c-2.818 0-2.566-4.052.169-4.104l166.524-5.123c1.172-.036 1.562.706.864 1.65l-1.572 2.131c-.696.942-2.227 1.737-3.399 1.763z"/><path d="m371.352 285.702c2.773.009-.121 2.855-.706 3.779-.698.944-2.227 1.737-3.401 1.763l-162.586 3.685c-1.172.026-2.094-.871-2.047-1.995.046-1.124 1.044-2.073 2.217-2.109z"/><path d="m371.613 297.201c2.773.01-.121 2.857-.706 3.779-.698.944-2.227 1.738-3.401 1.766l-162.585 3.682c-1.174.027-2.095-.871-2.048-1.993.046-1.123 1.043-2.073 2.217-2.109z"/></g><path d="m270.896 74.3704 22.917-2.5586 1.452-21.1053c.145-2.0604-.428-4.1075-1.623-5.7924-1.195-1.685-2.937-2.9037-4.929-3.4484-4.502-1.2188-10.868-1.1753-18.058 4.0754-14.109 10.2997.241 28.8293.241 28.8293zm4.388-17.6602c-.042-7.5299 11.153-7.783 11.451-.2593.042 7.5283-11.153 7.7814-11.451.2593z" fill="#fa541c"/><path d="m291.267 63.0046c-.073-.0047-.144-.0238-.209-.056-.065-.0323-.123-.0771-.171-.132-.048-.0548-.084-.1186-.107-.1876s-.033-.1418-.027-.2144l.231-3.3612c.004-.0729.023-.1442.055-.2098.032-.0655.077-.124.132-.172s.119-.0846.188-.1075c.069-.023.142-.0319.215-.0262.147.01.283.0777.38.1883s.145.2551.135.4017l-.231 3.3612c-.01.1467-.078.2833-.189.38-.111.0966-.256.1453-.402.1355zm.453-6.5859c-.073-.0049-.144-.0242-.209-.0566s-.123-.0774-.171-.1324c-.048-.0549-.084-.1188-.107-.1879s-.032-.142-.027-.2146c1.609-8.8915-5.409-12.0401-13.116-10.3524-.694.1723-.952-.9316-.245-1.0868 8.356-1.9221 16.201 1.9748 14.465 11.509-.004.0731-.023.1447-.055.2106s-.076.1247-.131.1733c-.055.0485-.119.0856-.188.1093-.07.0236-.143.0333-.216.0285z" fill="#fdab76"/><path d="m325.46 84.7139c-.511-5.6529 1.956-17.1806-7.069-16.8964l-72.954 4.1561c-7.959.4549-5.689 11.0092-6.304 16.2304z" fill="#770508"/><path d="m297.941 72.2722 3.144-.0761c.719 0 .694-1.1349-.024-1.1085l-3.14.0714c-.717.0109-.699 1.1396.02 1.1132z" fill="#fdab76"/><path d="m321.433 81.4796c.073-.0016.145-.0175.211-.0469.067-.0293.127-.0715.178-.1241.05-.0527.089-.1147.116-.1826.026-.0678.039-.1403.037-.213.964-13.9-8.506-9.4287-17.78-9.8898-.712.0093-.697 1.1349.027 1.1086l11.543-.2609c1.297-.0275 2.553.4606 3.491 1.3572.938.8967 1.483 2.1288 1.514 3.4262l.097 4.2835c.003.1469.065.2863.171.3879.106.1015.248.1569.395.1539z" fill="#fdab76"/><path d="m348.25 80.3211-127.672 2.8893c-2.224.0501-4.359.884-6.027 2.3545-1.669 1.4706-2.765 3.4833-3.095 5.683-1.122 5.1343 2.812 10.0711 8.106 9.9361l130.984-2.9667c6.45-.4657 5.08-6.9864 4.723-11.4981-.123-1.7641-.922-3.4129-2.229-4.6042-1.306-1.1913-3.022-1.8337-4.79-1.7939z" fill="#fa541c"/><path d="m245.909 335.847-17.017-41.324c-.161-.391-.434-.725-.785-.96s-.764-.36-1.187-.36h-10.464c-.357.001-.709.091-1.022.262-.314.172-.579.419-.772.72s-.307.645-.332 1.002c-.025.356.04.713.188 1.038l19.727 43.041c.203.444.553.804.99 1.021s.935.278 1.412.171l7.75-1.721c.303-.068.588-.201.835-.389.246-.189.449-.43.593-.705s.226-.578.24-.888c.015-.311-.038-.62-.156-.908z" fill="#116e95"/><path d="m272.093 384.539h-5.01v54.186h5.01z" fill="#22b8cf"/><path d="m291.529 439.768h-43.883v-2.737c0-.139.055-.272.153-.37s.231-.154.37-.154h42.837c.138 0 .271.056.37.154.098.098.153.231.153.37z" fill="#22b8cf"/><path d="m298.042 382.659c-.004 1.427-.573 2.795-1.582 3.805-1.01 1.009-2.378 1.578-3.805 1.582h-44.403c-5.947-.311-5.515-5.831-5.388-10.259.004-1.428.573-2.796 1.582-3.806 1.01-1.01 2.378-1.579 3.806-1.583h44.403c5.946.318 5.514 5.831 5.387 10.261z" fill="#77f0ed"/><path d="m232.599 348.411s-7.452 1.155-15.817 6.75c-.648.428-1.163 1.028-1.488 1.733-.325.704-.448 1.485-.353 2.256 1.003 7.94 5.123 33.637 18.714 58.737 2.101 2.969-1.481 12.149-1.756 15.324l-4.378 4.105h11.278l7.509-20.321c-3.616-.932-7.39-2.317-7.452-6.703-.343-10.982 1.306-32.137-6.331-38.213l18.009-.875z" fill="#ff928e"/><path d="m223.118 439.298c-1.028 1.345 11.054 3.118 17.159.177 0 0 8.461-14.721 8.461-22.3 0 0-.672-1.545-5.64-1.196 0 0-2.841 17.432-5.841 19.384-2.999 1.951-8.393.198-8.393.198s-4.23 1.753-5.746 3.737z" fill="#770508"/><path d="m248.255 372.398c-.097-.166-19.392-2.319-19.392-2.319 4.888 16.1-27.203 50.504-31.647 57.011l2.97 9.418c-9.185 3.198-18.219 3.71-27.109 1.63l18.41-11.048s17.234-58.714 27.791-69.19l19.342-6.691z" fill="#fdbab9"/><path d="m291.529 338.235c3.529 6.219 26.575 36.084-2.681 35.19-11.664.507-42.805.498-42.805.498l-26.578-22.714s19.363-6.912 24.404-8.868 47.66-4.106 47.66-4.106z" fill="#b3200e"/><path d="m199.063 433.335s3.199 3.106 1.039 6.544c0 0-25.336 4.492-32.214 2.454 0 0 1.429-3.261 9.174-6.972-6.106 4.916 19.733-.333 22.001-2.026z" fill="#770508"/><path d="m261.464 336.045s-12.947-12.327-19.32-20.494c-1.695-2.178-2.846-4.729-3.356-7.442s-.365-5.508.423-8.153c2.91-9.801 8.074-19.955 8.552-21.534.723-2.422 15.24-2.321 15.24-2.321s28.567 18.539 39.787 49.942l-12.604 3.924s-7.452-12.512-14.828-20.468c0 0 12.751 16.846 13.196 23.74z" fill="#fa541c"/><path d="m246.007 264.892c.156.503 3.941 13.065 4.237 13.326.297.26 8.309.691 12.081-1.887l-6.398-13.395z" fill="#ff928e"/><path d="m241.325 246.464s-4.493 4.911-4.586 14.703c0 18.37 15.215 11.734 20.534-.329 3.236-7.783-9.984-20.488-15.948-14.374z" fill="#fdbab9"/><path d="m253.295 259.047c-1.05-10.201 10.013-6.553 2.018 2.693z" fill="#fdbab9"/><path d="m235.089 336.96 9.512-9.168 13.158 5.559s13.097 2.03 20.595 0l7.495-2.029 16.94-5.278c2.497 7.998 6.21 10.766-3.271 15.384-2.231.976-54.993-.674-54.993-.674z" fill="#fdbab9"/><path d="m251.521 258.273s-1.203-13.71-11.712-9.056l-1.669 2.846c-12.54-9.647 10.188-23.243 20.115-11.066 10.197 8.993 6.087 27.495-1.619 21.878 0 0 .684-4.906-1.243-6.482-1.926-1.576-3.07 1.918-3.07 1.918z" fill="#770508"/><path d="m258.046 242.697c-1.972-.756-2.163-3.474-.402-4.64 20.028-15.461 35.544 22.558 46.409 22.978 2.328-.039 3.687 2.594 2.154 4.347-1.133 1.296-3.074 2.462-6.294 3.161-24.842 5.389-30.296-21.415-41.867-25.846z" fill="#770508"/><path d="m86.4993 442.713c-1.3678.029-2.4639-1.43-1.863-2.685l42.3847-93.803c.229-.476.632-.847 1.126-1.034.494-.188 1.041-.178 1.529.026.239.091.458.23.642.408.185.179.331.392.43.629.099.236.149.49.147.747-.003.256-.057.509-.16.744l-42.3788 93.805c-.1656.351-.4287.648-.7579.854-.3291.206-.7106.313-1.099.309z" fill="#22b8cf"/><path d="m134.239 442.713c-.39.005-.773-.102-1.103-.308-.331-.207-.594-.504-.76-.857l-42.371-93.803c-.1033-.235-.1578-.488-.1602-.744s.0474-.51.1463-.747c.0989-.236.2449-.45.429-.628.1842-.179.4027-.317.6422-.409.4873-.204 1.0346-.214 1.5288-.026.4941.187.8973.558 1.1261 1.034l42.3768 93.804c.604 1.242-.481 2.727-1.855 2.684z" fill="#22b8cf"/><path d="m260.841 442.713c-1.366.029-2.463-1.43-1.853-2.685l42.384-93.803c.229-.476.632-.847 1.126-1.034.495-.188 1.042-.178 1.529.026.24.092.458.23.642.409.184.178.33.392.429.628.099.237.149.491.147.747-.003.256-.057.509-.161.744l-42.384 93.803c-.166.352-.429.649-.758.855-.33.207-.712.314-1.101.31z" fill="#22b8cf"/><path d="m308.582 442.713c-.389.005-.772-.102-1.102-.308-.331-.207-.595-.504-.761-.857l-42.384-93.803c-.104-.235-.158-.488-.16-.744-.003-.256.047-.51.146-.747.099-.236.245-.45.429-.628.184-.179.402-.317.642-.409.487-.204 1.035-.214 1.529-.026.494.187.897.558 1.126 1.034l42.385 93.804c.608 1.242-.476 2.727-1.85 2.684z" fill="#22b8cf"/><path d="m322.144 343.3c.295-1.38-1.001-2.582-2.389-2.54h-245.9817c-1.8243-.072-3.4638 1.788-2.5415 3.487 1.5183 2.248 2.5306 7.176 6.0549 6.963h240.7803c1.354 0 2.518-.843 2.774-2.009z" fill="#77f0ed"/><path d="m43.0141 376.018c-1.4874 2.198-7.3933 51.985-8.317 70.374-.0581.574.1143 1.148.4793 1.595s.8926.731 1.4668.789 1.148-.115 1.595-.48c.4471-.364.7309-.892.7889-1.466l10.8027-69.229z" fill="#22b8cf"/><path d="m90.5003 376.018c1.4857 2.198 7.3917 51.985 8.3154 70.374.0145.294-.0309.588-.1336.864-.1028.277-.2606.529-.4639.742-.2033.214-.4478.384-.7187.499-.271.116-.5627.176-.8574.175-1.3972.188-2.3288-1.836-2.1565-1.863-.2111-1.355-10.7995-69.206-10.7995-69.206z" fill="#22b8cf"/><path d="m34.0792 372.132c-.3105 4.127 3.1051 7.654 7.5376 7.724l49.9331.85c4.1531.069 7.6075-2.93 7.8155-6.776.4813-4.204-2.9622-7.888-7.5003-7.965l-49.9533-.894c-4.2757-.077-7.7969 3.098-7.8326 7.061z" fill="#77f0ed"/><path d="m118.647 438.396c-7.93 0-11.439-.68-13.009-1.299.154.662.528 1.252 1.06 1.675s1.192.653 1.871.654h28.057c.209-.001.416-.049.604-.142s.352-.229.479-.395c.127-.167.214-.361.254-.566.04-.206.033-.418-.022-.621-3.197.258-9.991.694-19.294.694z" fill="#063963"/><path d="m137.94 437.704c-6.71-11.576-20.819-5.474-30.686-7.357-.22 1.139-2.052 5.634-1.616 6.75 3.663 2.169 29.699.989 32.302.607z" fill="#063963"/><path d="m109.18 424.747-1.926 6.547s4.265 1.942 8.018.383l.736-5.673z" fill="#ff928e"/><path d="m166.5 432.564c-6.182 4.968-8.512 8.347-10.122 8.852.534.417 1.194.643 1.872.638.678-.004 1.335-.237 1.863-.662l21.871-17.573c.164-.13.295-.297.383-.486.089-.19.132-.397.128-.606-.005-.209-.058-.415-.155-.6s-.235-.346-.404-.469c-2.332 2.191-8.184 5.078-15.436 10.906z" fill="#063963"/><path d="m181.938 421.651c-12.447-4.779-19.658 8.809-28.508 13.507.539 1.022 1.913 5.656 2.95 6.249 4.2-.605 23.762-17.828 25.558-19.756z" fill="#063963"/><path d="m67.9966 350.147c78.7544 6.365 63.8594 5.25 49.2714 77.317 0 0-2.651 1.276-8.551-.558 0 0 6.055-47.425 1.552-57.709l-51.4091-8.409z" fill="#063963"/><path d="m148.713 426.137c.441.402 4.717 9.028 4.717 9.028s4.762-1.031 5.732-4.037l-4.283-7.786z" fill="#ff928e"/><path d="m39.3983 349.748c-3.4839 7.608-1.1054 20.769 10.9392 21.407l56.1295 2.56c.575.026 1.127.236 1.574.6.448.363.766.86.91 1.418 1.32 5.102 7.763 20.77 39.279 52.032 2.1 2.29 5.745-1.641 7.63-2.484.227-.143.39-.369.453-.63s.023-.536-.113-.767l-32.681-55.81c-1.717-2.833-4.476-4.879-7.686-5.699l-47.8399-12.229z" fill="#063963"/><path d="m39.2459 349.585s-.5558-27.82 5.0054-54.002c2.2077-10.829 8.8154-20.126 17.7596-26.486l13.0088 5.278c20.0062 26.102 1.298 51.739-3.2603 75.609.014.008-21.537 2.854-32.5135-.399z" fill="#116e95"/><path d="m70.9555 248.363-10.163 23.577s3.2603 7.319 14.6343 4.473l4.0646-16.261z" fill="#fdbab9"/><path d="m91.095 237.608c.1227.329.3913 23.558.3913 23.558l-13.2666-.129-3.5259-21.977s14.3503-6.965 16.4012-1.452z" fill="#fdbab9"/><path d="m78.5857 243.289.9502 11.716c.2779 1.212 1.5184 4.171 4.6173 2.664 2.6129-1.398 5.0178-2.621 6.898-2.463.407.034.7868.218 1.065.517.2783.299.435.691.4394 1.1.0233 2.111-.0094 6.867-.6707 10.995-.0664.404-.2818.768-.6036 1.022-.3219.253-.7269.376-1.1353.346-1.0154-.253-12.4204-.611-13.2293-3.427-.4999-2.902-2.0524-11.714-2.8644-14.103-1.1955-3.202-4.8983-2.472-6.2847-3.93-3.7805-6.165 3.6221-5.735 2.0571-8.967-.9843-1.578-1.8087-4.133 1.0868-6.265 4.9681-3.592 7.2364 1.922 9.4705-.026.3245-.32.7918-.502 1.4548-.264.2135.072.4398.099.6643.078.2245-.02.4423-.087.6393-.197.1971-.109.3691-.259.505-.438.1359-.18.2327-.387.2842-.606 2.7946-8.188 13.9264-3.023 12.144 5.914-.6986 4.004-7.0858 3.917-10.5402 2.721-2.599-.928-6.929 1.604-6.9477 3.613z" fill="#063963"/><path d="m74.4408 255.915s.9191-7.029-1.8196-8.108c-9.3153-2.156-3.0942 12.148 1.8196 8.108z" fill="#fdbab9"/><path d="m102.268 327.241c-33.5029 10.517-31.7206-36.64-31.938-36.969-13.282-20.295-20.7389 6.75-19.4519 10.557 11.7792 42.649 41.4764 40.537 53.0479 32.16-1.441-2.236-1.77-4.208-1.658-5.748z" fill="#116e95"/><path d="m76.5864 319.967c-3.8814-2.949-9.3635-26.297-6.4633-27.97.226-.009.4461.073.612.226.1659.154.2641.367.273.593.2453 6.235 1.4221 17.889 6.5486 25.877.4409.636-.2515 1.531-.9703 1.274z" fill="#063963"/><path d="m67.2294 330.683c-7.963-6.329-13.6267-16.564-17.4413-30.129-.0322-.109-.0424-.223-.0301-.335.0123-.113.0469-.222.1018-.321s.129-.186.2179-.256c.089-.07.191-.122.3001-.152s.2232-.038.3355-.024c.1123.015.2206.051.3186.108.098.056.1838.132.2523.222.0684.09.1182.193.1465.303 3.6267 13.13 9.2113 22.926 16.5983 29.117.7142.551.0466 1.766-.7996 1.467z" fill="#063963"/><path d="m121.742 317.066c.932-.156-14.474 12.296-9.34 4.524 2.999-4.177 1.54-6.333-1.882-1.832-5.448 6.444-4.601 5.778-8.5 7.154-.112 1.54.217 3.512 1.658 5.754 10.509-3.32 14.599-2.607 18.064-15.6z" fill="#fdbab9"/><path d="m197.791 295.351c-144.9059-67.966 6.831-133.024 25.32-59.578 2.65 32.902-61.108 25.184-25.32 59.578z" fill="#22b8cf"/><path d="m147.24 230.582h37.918c.23 0 .45-.091.612-.253.163-.163.254-.383.254-.613s-.091-.45-.254-.613c-.162-.162-.382-.253-.612-.253h-37.918c-1.113-.017-1.132 1.749 0 1.732z" fill="#d2fcf4"/><path d="m196.417 230.582h11.251c.23 0 .45-.091.613-.253.162-.163.254-.383.254-.613s-.092-.45-.254-.613c-.163-.162-.383-.253-.613-.253h-11.251c-1.121-.017-1.126 1.749 0 1.732z" fill="#d2fcf4"/><path d="m145.963 238.258h14.238c.117.005.233-.013.343-.055.109-.041.209-.104.293-.185.085-.081.152-.178.198-.285.045-.108.069-.223.069-.34s-.024-.233-.069-.34c-.046-.107-.113-.205-.198-.285-.084-.081-.184-.144-.293-.185-.11-.042-.226-.06-.343-.056h-14.238c-1.12-.017-1.128 1.749 0 1.731z" fill="#d2fcf4"/><path d="m181.092 238.258h25.306c.117.005.233-.013.343-.055.109-.041.209-.104.293-.185.085-.081.152-.178.198-.285.046-.108.069-.223.069-.34s-.023-.233-.069-.34-.113-.205-.198-.285c-.084-.081-.184-.144-.293-.185-.11-.042-.226-.06-.343-.056h-25.306c-1.117-.017-1.129 1.749 0 1.731z" fill="#d2fcf4"/><path d="m144.684 245.935h37.85c.229 0 .45-.091.612-.254.163-.162.254-.383.254-.612 0-.23-.091-.45-.254-.613-.162-.162-.383-.254-.612-.254h-37.85c-1.112-.017-1.132 1.75 0 1.733z" fill="#d2fcf4"/><path d="m192.011 245.935h13.102c.229 0 .45-.091.612-.254.163-.162.254-.383.254-.612 0-.23-.091-.45-.254-.613-.162-.162-.383-.254-.612-.254h-13.102c-1.121-.017-1.127 1.75 0 1.733z" fill="#d2fcf4"/></svg>